<svg width="24" height="24" viewBox="0 0 24 24" fill="none" xmlns="http://www.w3.org/2000/svg">
<path d="M12 4.00021C15.87 4.00021 19 7.13021 19 11.0002V13.0002H16.08L21 17.9202V11.0002C21 8.61327 20.0518 6.32408 18.364 4.63625C16.6761 2.94843 14.3869 2.00021 12 2.00021C10.05 2.00021 8.24 2.62021 6.77 3.68021L8.21 5.12021C9.33745 4.38608 10.6546 3.99685 12 4.00021V4.00021ZM2.27 1.72021L1 3.00021L4.33 6.32022C3.46055 7.72639 3 9.34696 3 11.0002V18.0002C3 19.6602 4.34 21.0002 6 21.0002H9V13.0002H5V11.0002C5 9.83021 5.29 8.74022 5.79 7.78022L15 17.0002V21.0002H18C18.3 21.0002 18.59 20.9402 18.86 20.8602L21 23.0002L22.27 21.7302L2.27 1.72021V1.72021Z" fill="#04D361"/>
</svg>
